<svg version="1.1" viewBox="0.0 0.0 480.0 240.0" fill="none" stroke="none" stroke-linecap="square" stroke-miterlimit="10" xmlns:xlink="http://www.w3.org/1999/xlink" xmlns="http://www.w3.org/2000/svg"><clipPath id="p.0"><path d="m0 0l480.0 0l0 240.0l-480.0 0l0 -240.0z" clip-rule="nonzero"/></clipPath><g clip-path="url(#p.0)"><path fill="#000000" fill-opacity="0.0" d="m0 0l480.0 0l0 240.0l-480.0 0z" fill-rule="evenodd"/><defs><linearGradient id="p.1" gradientUnits="userSpaceOnUse" gradientTransform="matrix(-15.491989638022952 0.0 0.0 -15.491989638022952 0.0 0.0)" spreadMethod="pad" x1="-30.98290715753891" y1="-15.49148137443975" x2="-30.9829627488795" y2="5.082634834619998E-4"><stop offset="0.0" stop-color="#434343"/><stop offset="1.4E-45" stop-color="#4a4a4a"/><stop offset="0.67" stop-color="#000000"/><stop offset="1.0" stop-color="#000000"/></linearGradient></defs><path fill="url(#p.1)" d="m479.98688 239.99213l-480.0 0l0 -240.0l480.0 0z" fill-rule="evenodd"/><path stroke="#000000" stroke-width="1.0" stroke-linejoin="round" stroke-linecap="butt" d="m479.98688 239.99213l-480.0 0l0 -240.0l480.0 0z" fill-rule="evenodd"/><path fill="#000000" fill-opacity="0.0" d="m1.8188976 61.59055l480.0 0l0 116.81891l-480.0 0z" fill-rule="evenodd"/><path fill="#999999" d="m119.09603 114.858055l-5.1875 0l0 33.812492l5.5 0l0 -26.906242q0.1875 -0.5 0.484375 -0.9375q0.296875 -0.4375 0.703125 -0.78125q0.53125 -0.4375 1.296875 -0.671875q0.765625 -0.234375 1.796875 -0.234375q0.9375 0 1.640625 0.234375q0.703125 0.234375 1.171875 0.734375q0.5 0.53125 0.734375 1.34375q0.234375 0.8125 0.234375 1.875l0 25.343742l5.4999924 0l0 -25.312492q0 -0.1875 0 -0.328125q0 -0.140625 0 -0.296875q0.09375 -0.78125 0.375 -1.421875q0.28125 -0.640625 0.78125 -1.140625q0.5 -0.46875 1.25 -0.75q0.75 -0.28125 1.78125 -0.28125q0.96875 0 1.703125 0.25q0.734375 0.25 1.234375 0.75q0.46875 0.53125 0.71875 1.34375q0.25 0.8125 0.25 1.875l0 25.312492l5.5 0l0 -25.249992q0 -2.4375 -0.5625 -4.234375q-0.5625 -1.796875 -1.625 -2.921875q-0.96875 -1.0 -2.375 -1.515625q-1.40625 -0.515625 -3.15625 -0.515625q-1.28125 0.03125 -2.359375 0.34375q-1.078125 0.3125 -1.953125 0.84375q-0.6875 0.46875 -1.28125 1.09375q-0.59375 0.625 -1.03125 1.34375q-0.34375 -0.78125 -0.828125 -1.40625q-0.484375 -0.625 -1.078125 -1.0625q-0.8125 -0.5625 -1.890625 -0.859375q-1.0781174 -0.296875 -2.4218674 -0.296875q-2.375 0.03125 -4.046875 1.03125q-1.671875 1.0 -2.703125 2.78125l-0.15625 -3.1875zm36.656242 0l0 5.03125l11.5 0l0 23.781242l-11.5 0l0 5.0l28.3125 0l0 -5.0l-11.03125 0l0 -28.812492l-17.28125 0zm10.75 -8.875q0 1.40625 0.859375 2.34375q0.859375 0.9375 2.609375 0.9375q1.71875 0 2.59375 -0.9375q0.875 -0.9375 0.875 -2.34375q0 -0.78125 -0.25 -1.4375q-0.25 -0.65625 -0.75 -1.09375q-0.40625 -0.40625 -1.03125 -0.640625q-0.625 -0.234375 -1.4375 -0.234375q-0.8125 0 -1.453125 0.234375q-0.640625 0.234375 -1.046875 0.640625q-0.5 0.46875 -0.734375 1.125q-0.234375 0.65625 -0.234375 1.40625zm36.875 26.906242l12.40625 15.78125l7.34375 0l-15.78125 -19.71875l13.6875 -14.093742l-7.03125 0l-11.09375 11.125l-3.78125 4.0624924l0 -29.374992l-5.8125 0l0 47.999992l5.8125 0l0 -11.6875l4.25 -4.09375z" fill-rule="nonzero"/><path fill="#ffffff" d="m241.42415 142.43617l0 -51.578117l-7.34375 0l0 57.812492l35.625015 0l0 -6.234375l-28.281265 0zm41.66423 -36.734367l0 6.390625l14.609375 0l0 30.218742l-14.609375 0l0 6.359375l35.984375 0l0 -6.359375l-14.03125 0l0 -36.609367l-21.953125 0zm13.65625 -11.28125q0 1.796875 1.09375 2.984375q1.09375 1.1875 3.3125 1.1875q2.1875 0 3.296875 -1.1875q1.109375 -1.1875 1.109375 -2.984375q0 -0.984375 -0.3125 -1.8125q-0.3125 -0.84375 -0.953125 -1.40625q-0.515625 -0.515625 -1.3125 -0.8125q-0.796875 -0.296875 -1.828125 -0.296875q-1.03125 0 -1.84375 0.296875q-0.8125 0.296875 -1.328125 0.8125q-0.640625 0.609375 -0.9375 1.4375q-0.296875 0.828125 -0.296875 1.78125zm70.414185 33.25l0 -0.84375q0 -3.375 -0.5625 -6.40625q-0.546875 -3.046875 -1.625 -5.546875q-1.03125 -2.21875 -2.390625 -4.015625q-1.34375 -1.8125 -3.046875 -3.09375q-1.90625 -1.34375 -4.25 -2.09375q-2.34375 -0.765625 -5.125 -0.765625q-2.21875 0 -4.125 0.4375q-1.90625 0.4375 -3.5 1.28125q-1.265625 0.671875 -2.390625 1.609375q-1.109375 0.921875 -2.015625 2.078125l0 -22.640625l-7.34375 0l0 60.999992l6.75 0l0.359375 -4.890625q0.703125 0.921875 1.5 1.671875q0.796875 0.75 1.671875 1.390625q1.828125 1.265625 4.109375 1.9375q2.28125 0.6875 5.0625 0.6875q2.421875 0 4.5 -0.59375q2.09375 -0.59375 3.84375 -1.671875q2.421875 -1.546875 4.140625 -3.90625q1.734375 -2.375 2.8125 -5.34375q0.78125 -2.265625 1.203125 -4.859375q0.421875 -2.609375 0.421875 -5.4218674zm-7.34375 -0.84375l0 0.84375q0 1.9062424 -0.25 3.7343674q-0.234375 1.8125 -0.75 3.40625q-0.640625 2.109375 -1.71875 3.8125q-1.0625 1.703125 -2.65625 2.8125q-1.1875 0.875 -2.703125 1.34375q-1.5 0.453125 -3.328125 0.453125q-1.90625 0 -3.5 -0.5q-1.578125 -0.5 -2.84375 -1.40625q-1.28125 -0.921875 -2.25 -2.125q-0.96875 -1.21875 -1.6875 -2.640625l0 -18.781242q0.671875 -1.4375 1.640625 -2.640625q0.984375 -1.21875 2.25 -2.125q1.234375 -0.875 2.8125 -1.375q1.59375 -0.5 3.5 -0.5q1.75 0 3.171875 0.40625q1.4375 0.390625 2.59375 1.109375q1.65625 0.984375 2.8125 2.734375q1.15625 1.75 1.875 3.859375q0.515625 1.703125 0.765625 3.640625q0.265625 1.921875 0.265625 3.9375z" fill-rule="nonzero"/></g></svg>